<?xml version="1.0" standalone="no"?>
<!DOCTYPE svg PUBLIC "-//W3C//DTD SVG 20010904//EN"
 "http://www.w3.org/TR/2001/REC-SVG-20010904/DTD/svg10.dtd">
<svg version="1.0" xmlns="http://www.w3.org/2000/svg"
 width="5000.000000pt" height="5000.000000pt" viewBox="0 0 5000.000000 5000.000000"
 preserveAspectRatio="xMidYMid meet">
<metadata>
Created by potrace 1.11, written by Peter Selinger 2001-2013
</metadata>
<g transform="translate(0.000000,5000.000000) scale(0.100000,-0.100000)"
fill="#000000" stroke="none">
<path d="M8409 47496 c-2 -2 -62 -6 -134 -10 -71 -4 -146 -8 -165 -11 -19 -2
-65 -6 -101 -10 -36 -3 -76 -7 -90 -10 -13 -2 -51 -6 -84 -10 -33 -4 -98 -13
-145 -21 -47 -8 -98 -17 -115 -20 -567 -97 -1170 -298 -1705 -569 -261 -132
-587 -331 -806 -491 -45 -32 -92 -66 -104 -74 -12 -8 -28 -20 -34 -25 -6 -6
-65 -54 -131 -107 -66 -53 -133 -109 -150 -123 -16 -14 -57 -50 -90 -78 -33
-29 -137 -128 -231 -222 -146 -146 -214 -219 -374 -400 -109 -125 -349 -447
-439 -590 -24 -39 -56 -88 -71 -110 -28 -42 -113 -186 -175 -295 -65 -117
-232 -462 -283 -585 -47 -115 -131 -332 -137 -355 0 -3 -17 -54 -37 -115 -96
-290 -175 -608 -222 -900 -28 -172 -41 -262 -51 -365 -3 -36 -8 -83 -10 -105
-2 -22 -8 -96 -12 -165 -10 -157 -11 -33325 -1 -33475 10 -137 15 -195 34
-367 5 -49 38 -259 50 -318 3 -14 9 -52 15 -85 5 -33 14 -76 19 -95 5 -19 11
-46 14 -60 2 -14 12 -56 21 -95 9 -38 18 -78 20 -87 2 -9 13 -52 26 -95 12
-43 22 -82 24 -88 26 -129 205 -623 290 -802 25 -52 45 -97 45 -100 0 -12 176
-354 223 -433 27 -47 64 -110 80 -140 27 -49 42 -73 109 -172 10 -15 18 -31
18 -37 0 -5 3 -11 8 -13 4 -2 25 -30 47 -63 22 -33 44 -64 48 -70 4 -5 40 -55
80 -110 65 -91 166 -221 219 -285 197 -235 299 -342 582 -615 57 -55 244 -215
328 -281 46 -35 99 -77 118 -92 71 -56 189 -139 310 -219 69 -45 130 -86 135
-90 6 -5 60 -37 120 -72 61 -35 130 -76 155 -91 223 -136 732 -360 1060 -468
127 -42 425 -128 470 -136 14 -2 72 -16 130 -29 92 -22 131 -30 250 -51 14 -2
52 -9 85 -15 33 -6 78 -13 100 -15 47 -6 110 -15 145 -21 14 -2 57 -7 95 -10
39 -4 81 -8 94 -10 14 -3 79 -8 145 -12 159 -10 33408 -10 33551 0 61 4 128
10 150 12 22 2 65 7 95 10 55 5 174 21 240 31 19 3 49 8 65 10 17 3 53 9 80
14 28 6 67 12 89 16 21 3 46 7 55 9 189 40 346 79 522 129 145 41 427 137 507
172 30 13 58 24 62 24 15 0 285 122 440 198 138 68 444 237 510 282 14 10 79
52 144 95 181 117 518 369 595 443 9 9 46 42 81 72 378 323 804 814 1085 1250
37 58 76 118 87 134 11 15 45 71 75 125 30 53 64 111 74 129 31 53 194 379
232 462 114 251 273 697 321 900 2 8 11 40 20 70 8 30 17 66 20 80 3 14 16 75
30 135 28 121 83 425 91 501 3 27 7 58 9 69 5 28 19 172 34 365 9 127 9 33397
-1 33525 -4 55 -9 111 -11 125 -2 14 -7 59 -11 100 -3 41 -8 86 -10 100 -1 14
-6 50 -10 80 -6 53 -39 247 -50 300 -3 14 -8 41 -11 60 -3 19 -13 64 -21 100
-15 66 -19 86 -28 130 -7 33 -47 184 -85 320 -32 113 -128 394 -166 485 -19
44 -34 82 -34 86 0 15 -135 311 -207 454 -96 190 -278 509 -321 561 -5 5 -15
21 -22 35 -27 51 -311 445 -339 469 -4 3 -19 23 -36 45 -16 22 -32 42 -36 45
-4 3 -33 37 -65 75 -123 146 -265 297 -431 455 -103 98 -120 114 -238 215 -38
33 -76 66 -84 73 -59 56 -411 316 -538 397 -168 107 -263 166 -318 196 -33 17
-67 37 -75 44 -22 17 -337 175 -470 235 -267 121 -638 253 -910 325 -8 2 -40
11 -70 19 -30 8 -66 17 -80 20 -14 2 -47 10 -75 16 -27 6 -58 13 -68 15 -10 2
-26 6 -35 9 -15 5 -241 48 -317 60 -30 5 -88 13 -155 22 -19 2 -51 7 -70 9
-44 6 -114 13 -210 21 -41 3 -93 8 -115 12 -42 6 -33349 15 -33356 8z"/>
</g>
</svg>
